<svg width="157" height="57" viewBox="0 0 157 57" fill="none" xmlns="http://www.w3.org/2000/svg">
<path d="M8.21786 30.1809C6.72867 30.1809 5.35561 29.7971 4.09868 29.0296C2.85541 28.262 1.85807 27.2409 1.10664 25.9663C0.368881 24.6779 0 23.2662 0 21.7311V19.7985C0 19.6477 0.0683114 19.5724 0.204934 19.5724H4.91842C5.02772 19.5724 5.08237 19.6477 5.08237 19.7985V21.7311C5.08237 22.6494 5.38977 23.4443 6.00457 24.1159C6.61937 24.7738 7.35713 25.1028 8.21786 25.1028C9.09224 25.1028 9.83684 24.767 10.4516 24.0954C11.0664 23.4101 11.3738 22.622 11.3738 21.7311C11.3738 20.7031 10.7044 19.8054 9.36549 19.0378C9.14689 18.9008 8.85998 18.7363 8.50476 18.5444C8.16321 18.3388 7.75334 18.1058 7.27516 17.8454C6.79698 17.585 6.33246 17.3314 5.88161 17.0847C5.43075 16.8243 4.99356 16.5776 4.57003 16.3446C3.03986 15.44 1.89906 14.3092 1.14763 12.9523C0.409868 11.5817 0.0409868 10.0466 0.0409868 8.34703C0.0409868 6.78453 0.42353 5.3728 1.18862 4.11184C1.9537 2.86458 2.95105 1.87774 4.18066 1.15131C5.42392 0.411184 6.76966 0.0411184 8.21786 0.0411184C9.70704 0.0411184 11.0733 0.411184 12.3165 1.15131C13.5598 1.90515 14.5503 2.9057 15.2881 4.15296C16.0395 5.40021 16.4152 6.79824 16.4152 8.34703V11.801C16.4152 11.9106 16.3606 11.9654 16.2513 11.9654H11.5378C11.4285 11.9654 11.3738 11.9106 11.3738 11.801L11.3329 8.34703C11.3329 7.36019 11.0255 6.55838 10.4107 5.94161C9.79585 5.32483 9.06492 5.01644 8.21786 5.01644C7.35713 5.01644 6.61937 5.34539 6.00457 6.00328C5.38977 6.66118 5.08237 7.44243 5.08237 8.34703C5.08237 9.26534 5.27364 10.0329 5.65618 10.6497C6.05239 11.2664 6.76966 11.8558 7.80799 12.4178C7.91729 12.4726 8.17004 12.6096 8.56625 12.8289C8.96245 13.0482 9.39964 13.2949 9.87782 13.5691C10.3697 13.8295 10.8137 14.0693 11.2099 14.2886C11.6061 14.4942 11.8452 14.6176 11.9272 14.6587C13.3207 15.44 14.4205 16.3994 15.2266 17.537C16.0463 18.6746 16.4562 20.0726 16.4562 21.7311C16.4562 23.3347 16.0873 24.7738 15.3496 26.0485C14.5981 27.3232 13.6008 28.3306 12.3575 29.0707C11.1143 29.8108 9.73437 30.1809 8.21786 30.1809Z" fill="#0A0A0A"/>
<path d="M27.1333 30.1809C25.6441 30.1809 24.271 29.7971 23.0141 29.0296C21.7708 28.262 20.7667 27.2409 20.0016 25.9663C19.2501 24.6779 18.8744 23.2662 18.8744 21.7311L18.9154 8.38815C18.9154 6.82565 19.2911 5.42077 20.0426 4.17352C20.7803 2.91255 21.7777 1.90515 23.0346 1.15131C24.2915 0.383772 25.6577 0 27.1333 0C28.6634 0 30.0365 0.376918 31.2524 1.13076C32.4821 1.88459 33.4657 2.89885 34.2035 4.17352C34.9549 5.43448 35.3306 6.83936 35.3306 8.38815L35.3716 21.7311C35.3716 23.2662 35.0027 24.671 34.265 25.9457C33.5136 27.2341 32.5162 28.262 31.2729 29.0296C30.0297 29.7971 28.6498 30.1809 27.1333 30.1809ZM27.1333 25.1028C27.9803 25.1028 28.7181 24.7601 29.3466 24.0748C29.975 23.3758 30.2893 22.5946 30.2893 21.7311L30.2483 8.38815C30.2483 7.45613 29.9545 6.66803 29.3671 6.02384C28.7796 5.37966 28.035 5.05756 27.1333 5.05756C26.2725 5.05756 25.5348 5.3728 24.92 6.00328C24.3052 6.63377 23.9978 7.42872 23.9978 8.38815V21.7311C23.9978 22.6494 24.3052 23.4443 24.92 24.1159C25.5348 24.7738 26.2725 25.1028 27.1333 25.1028Z" fill="#0A0A0A"/>
<path d="M46.2741 30.1809C44.7986 30.1809 43.4324 29.7971 42.1754 29.0296C40.9185 28.262 39.9143 27.2341 39.1629 25.9457C38.4251 24.6436 38.0563 23.225 38.0563 21.6899L38.1382 0.637335C38.1382 0.527686 38.1929 0.472861 38.3022 0.472861H43.0157C43.125 0.472861 43.1796 0.527686 43.1796 0.637335V21.6899C43.1796 22.6357 43.4802 23.4443 44.0813 24.1159C44.6825 24.7738 45.4134 25.1028 46.2741 25.1028C47.1758 25.1028 47.9272 24.7738 48.5284 24.1159C49.1295 23.4443 49.4301 22.6357 49.4301 21.6899V0.637335C49.4301 0.527686 49.4847 0.472861 49.594 0.472861H54.3075C54.4168 0.472861 54.4715 0.527686 54.4715 0.637335L54.5535 21.6899C54.5535 23.2387 54.1846 24.6642 53.4468 25.9663C52.6954 27.2546 51.698 28.2826 50.4548 29.0501C49.2115 29.804 47.818 30.1809 46.2741 30.1809Z" fill="#0A0A0A"/>
<path d="M71.5835 29.7697H58.0168C57.9075 29.7697 57.8529 29.7012 57.8529 29.5641L57.8939 0.678453C57.8939 0.541392 57.9622 0.472861 58.0988 0.472861H62.7713C62.9079 0.472861 62.9762 0.541392 62.9762 0.678453L62.9353 24.5888H71.5835C71.7201 24.5888 71.7884 24.6573 71.7884 24.7944V29.5641C71.7884 29.7012 71.7201 29.7697 71.5835 29.7697Z" fill="#0A0A0A"/>
<path d="M79.4529 29.7697H74.7395C74.6028 29.7697 74.5345 29.7012 74.5345 29.5641L74.6165 0.637335C74.6165 0.527686 74.6712 0.472861 74.7804 0.472861H82.8549C85.4234 0.472861 87.4522 1.26096 88.9414 2.83717C90.4442 4.39967 91.1957 6.53097 91.1957 9.23108C91.1957 11.2048 90.8063 12.9249 90.0275 14.3914C89.2351 15.8443 88.2105 16.9682 86.9535 17.7631C85.6966 18.5581 84.3304 18.9556 82.8549 18.9556H79.6579V29.5641C79.6579 29.7012 79.5896 29.7697 79.4529 29.7697ZM82.8549 5.46875L79.6579 5.50986V13.8569H82.8549C83.7429 13.8569 84.5148 13.432 85.1706 12.5822C85.8264 11.7187 86.1543 10.6017 86.1543 9.23108C86.1543 8.13459 85.8605 7.23684 85.2731 6.53782C84.6856 5.8251 83.8795 5.46875 82.8549 5.46875Z" fill="#0A0A0A"/>
<path d="M98.6348 29.7697H93.8803C93.771 29.7697 93.7164 29.7012 93.7164 29.5641L93.7983 0.637335C93.7983 0.527686 93.853 0.472861 93.9623 0.472861H102.447C103.963 0.472861 105.357 0.842927 106.627 1.58306C107.898 2.32319 108.909 3.31688 109.66 4.56414C110.425 5.8114 110.808 7.22313 110.808 8.79933C110.808 9.82729 110.651 10.7593 110.337 11.5954C110.022 12.4315 109.653 13.1373 109.23 13.713C108.82 14.2886 108.444 14.7135 108.103 14.9877C109.619 16.6735 110.377 18.654 110.377 20.9293L110.418 29.5641C110.418 29.7012 110.35 29.7697 110.214 29.7697H105.459C105.35 29.7697 105.295 29.7286 105.295 29.6464V20.9293C105.295 19.915 104.94 19.0378 104.229 18.2977C103.519 17.5576 102.645 17.1875 101.606 17.1875H98.8397L98.7987 29.5641C98.7987 29.7012 98.7441 29.7697 98.6348 29.7697ZM102.447 5.50986H98.8397V12.1299H102.447C103.307 12.1299 104.072 11.8078 104.742 11.1636C105.425 10.5195 105.766 9.73135 105.766 8.79933C105.766 7.90844 105.439 7.14089 104.783 6.4967C104.127 5.83881 103.348 5.50986 102.447 5.50986Z" fill="#0A0A0A"/>
<path d="M118.923 29.7697H114.169C114.032 29.7697 113.964 29.7012 113.964 29.5641L114.005 0.637335C114.005 0.527686 114.059 0.472861 114.169 0.472861H118.882C118.992 0.472861 119.046 0.527686 119.046 0.637335L119.087 29.5641C119.087 29.7012 119.033 29.7697 118.923 29.7697Z" fill="#0A0A0A"/>
<path d="M127.346 29.7697H123.145C122.926 29.7697 122.817 29.6738 122.817 29.4819L122.776 0.801808C122.776 0.58251 122.885 0.472861 123.104 0.472861H126.895L133.986 17.0641L133.781 0.801808C133.781 0.58251 133.904 0.472861 134.15 0.472861H138.31C138.474 0.472861 138.556 0.58251 138.556 0.801808L138.597 29.523C138.597 29.6875 138.529 29.7697 138.392 29.7697H134.703L127.428 14.2681L127.735 29.4408C127.735 29.6601 127.606 29.7697 127.346 29.7697Z" fill="#0A0A0A"/>
<path d="M151.2 29.7697H146.466C146.343 29.7697 146.282 29.7012 146.282 29.5641V5.55098H140.831C140.694 5.55098 140.626 5.48245 140.626 5.34539L140.667 0.637335C140.667 0.527686 140.721 0.472861 140.831 0.472861H156.775C156.925 0.472861 157 0.527686 157 0.637335V5.34539C157 5.48245 156.945 5.55098 156.836 5.55098H151.323L151.364 29.5641C151.364 29.7012 151.31 29.7697 151.2 29.7697Z" fill="#0A0A0A"/>
<path d="M3.69375 44.5907V56.7171H2.40441V44.5907H3.69375ZM9.11298 56.0905L9.07269 56.7171H3.65345V56.0905H9.11298ZM8.16612 50.3507V50.9571H3.65345V50.3507H8.16612ZM9.09283 44.5907V45.2173H3.65345V44.5907H9.09283ZM10.2411 53.827L9.13312 56.7171H6.07095L6.75591 56.0905C7.42744 56.0905 7.96466 55.9962 8.36758 55.8076C8.78393 55.6055 9.11969 55.336 9.37487 54.9992C9.63005 54.6488 9.85166 54.2581 10.0397 53.827H10.2411ZM8.16612 50.9166V52.0686H7.94452V51.8059C7.94452 51.5768 7.87737 51.3815 7.74306 51.2198C7.60875 51.0446 7.40058 50.9571 7.11854 50.9571V50.9166H8.16612ZM8.16612 49.2392V50.3912H7.11854V50.3507C7.40058 50.3507 7.60875 50.2699 7.74306 50.1082C7.87737 49.9331 7.94452 49.731 7.94452 49.5019V49.2392H8.16612ZM9.09283 45.1566V46.5512H8.87123V46.248C8.87123 45.9651 8.77721 45.7225 8.58918 45.5204C8.41459 45.3183 8.17284 45.2173 7.86393 45.2173V45.1566H9.09283ZM9.09283 44.2674V44.7929L6.79621 44.5907C7.21255 44.5907 7.65576 44.5571 8.12583 44.4897C8.5959 44.4089 8.91823 44.3348 9.09283 44.2674ZM2.4447 55.4236L2.7066 56.7171H0.953911V56.5149C0.953911 56.5149 1.00092 56.5149 1.09493 56.5149C1.18895 56.5149 1.23595 56.5149 1.23595 56.5149C1.57172 56.5149 1.84704 56.4072 2.06193 56.1916C2.27682 55.976 2.39098 55.72 2.40441 55.4236H2.4447ZM2.4447 45.864H2.40441C2.39098 45.5541 2.27682 45.2981 2.06193 45.096C1.84704 44.8939 1.57172 44.7929 1.23595 44.7929C1.23595 44.7929 1.18895 44.7929 1.09493 44.7929C1.00092 44.7929 0.953911 44.7929 0.953911 44.7929V44.5907H2.7066L2.4447 45.864Z" fill="#0A0A0A"/>
<path d="M28.733 44.2876L39.8938 54.8375L40.0952 57L28.9344 46.3895L28.733 44.2876ZM28.7733 55.464V56.7171H27.2623V56.5149C27.2623 56.5149 27.3161 56.5149 27.4235 56.5149C27.5444 56.5149 27.6048 56.5149 27.6048 56.5149C27.9137 56.5149 28.1756 56.4139 28.3905 56.2118C28.6054 56.0097 28.7128 55.7604 28.7128 55.464H28.7733ZM29.6194 55.464C29.6194 55.7604 29.7268 56.0097 29.9417 56.2118C30.17 56.4139 30.4319 56.5149 30.7274 56.5149C30.7274 56.5149 30.7811 56.5149 30.8886 56.5149C31.0095 56.5149 31.0699 56.5149 31.0699 56.5149V56.7171H29.559V55.464H29.6194ZM28.733 44.2876L29.5992 45.4194L29.6194 56.7171H28.7128V46.8139C28.7128 46.1267 28.6793 45.5339 28.6121 45.0354C28.5584 44.5369 28.5315 44.2876 28.5315 44.2876H28.733ZM40.0952 44.5907V54.4131C40.0952 54.8442 40.1087 55.2619 40.1355 55.6661C40.1624 56.0568 40.1892 56.3802 40.2161 56.6362C40.2564 56.8787 40.2765 57 40.2765 57H40.0952L39.2088 55.9288V44.5907H40.0952ZM40.0348 45.8438V44.5907H41.5457V44.7929C41.5457 44.7929 41.4853 44.7929 41.3644 44.7929C41.257 44.7929 41.2033 44.7929 41.2033 44.7929C40.9078 44.7929 40.6459 44.8939 40.4176 45.096C40.2027 45.2981 40.0952 45.5474 40.0952 45.8438H40.0348ZM39.2088 45.8438C39.1954 45.5474 39.0812 45.2981 38.8663 45.096C38.6514 44.8939 38.3895 44.7929 38.0806 44.7929C38.0806 44.7929 38.0202 44.7929 37.8993 44.7929C37.7919 44.7929 37.7382 44.7929 37.7382 44.7929V44.5907H39.2491V45.8438H39.2088Z" fill="#0A0A0A"/>
<path d="M65.4873 44.3078C66.1051 44.3078 66.6827 44.355 67.2199 44.4493C67.7705 44.5301 68.2876 44.6649 68.7711 44.8535C69.268 45.0286 69.7381 45.2577 70.1813 45.5406L70.6245 48.3903H70.4432C70.2552 47.5954 69.9463 46.9419 69.5165 46.4299C69.1002 45.9179 68.5562 45.5406 67.8847 45.2981C67.2132 45.0421 66.4073 44.9141 65.4672 44.9141C64.4465 44.9141 63.5466 45.1499 62.7676 45.6215C62.0021 46.0796 61.4044 46.7398 60.9747 47.6021C60.5449 48.451 60.33 49.4682 60.33 50.6539C60.33 51.8261 60.5449 52.8434 60.9747 53.7057C61.4044 54.568 62.0088 55.235 62.7878 55.7065C63.5668 56.1646 64.4666 56.3937 65.4873 56.3937C66.0514 56.3937 66.5886 56.3331 67.099 56.2118C67.6094 56.0905 68.0996 55.9019 68.5696 55.6459C69.0532 55.3764 69.5031 55.0396 69.9194 54.6354L69.9396 51.9474C69.953 51.6914 69.8724 51.496 69.6978 51.3613C69.5366 51.2265 69.3083 51.1592 69.0129 51.1592H68.7308V50.9571H72.4175V51.1592H72.1355C71.5311 51.1592 71.2289 51.4286 71.2289 51.9676V54.3928C70.92 54.7836 70.4969 55.1811 69.9597 55.5853C69.4225 55.9895 68.7778 56.3263 68.0257 56.5958C67.287 56.8653 66.4409 57 65.4873 57C64.1577 56.9865 62.996 56.7238 62.0021 56.2118C61.0217 55.6998 60.2561 54.9722 59.7055 54.0291C59.1548 53.0859 58.8795 51.9608 58.8795 50.6539C58.8795 49.3335 59.1548 48.2017 59.7055 47.2585C60.2561 46.3154 61.0284 45.5878 62.0223 45.0758C63.0161 44.5638 64.1711 44.3078 65.4873 44.3078Z" fill="#0A0A0A"/>
<path d="M92.272 44.5907V56.7171H91.0028V44.5907H92.272ZM91.0633 55.4236V56.7171H89.3509V56.5149C89.3509 56.5149 89.3979 56.5149 89.4919 56.5149C89.5859 56.5149 89.6329 56.5149 89.6329 56.5149C90.009 56.5149 90.3246 56.4072 90.5798 56.1916C90.8484 55.976 90.9894 55.72 91.0028 55.4236H91.0633ZM92.2116 55.4236H92.272C92.2854 55.72 92.4197 55.976 92.6749 56.1916C92.9435 56.4072 93.2659 56.5149 93.6419 56.5149C93.6419 56.5149 93.6822 56.5149 93.7628 56.5149C93.8568 56.5149 93.9038 56.5149 93.9038 56.5149L93.924 56.7171H92.2116V55.4236ZM92.2116 45.8842V44.5907H93.924L93.9038 44.7929C93.9038 44.7929 93.8568 44.7929 93.7628 44.7929C93.6822 44.7929 93.6419 44.7929 93.6419 44.7929C93.2659 44.7929 92.9435 44.9006 92.6749 45.1162C92.4197 45.3183 92.2854 45.5743 92.272 45.8842H92.2116ZM91.0633 45.8842H91.0028C90.9894 45.5743 90.8484 45.3183 90.5798 45.1162C90.3246 44.9006 90.009 44.7929 89.6329 44.7929C89.6195 44.7929 89.5658 44.7929 89.4717 44.7929C89.3912 44.7929 89.3509 44.7929 89.3509 44.7929V44.5907H91.0633V45.8842Z" fill="#0A0A0A"/>
<path d="M112.9 44.2876L124.061 54.8375L124.262 57L113.102 46.3895L112.9 44.2876ZM112.94 55.464V56.7171H111.429V56.5149C111.429 56.5149 111.483 56.5149 111.591 56.5149C111.711 56.5149 111.772 56.5149 111.772 56.5149C112.081 56.5149 112.343 56.4139 112.558 56.2118C112.773 56.0097 112.88 55.7604 112.88 55.464H112.94ZM113.787 55.464C113.787 55.7604 113.894 56.0097 114.109 56.2118C114.337 56.4139 114.599 56.5149 114.895 56.5149C114.895 56.5149 114.948 56.5149 115.056 56.5149C115.177 56.5149 115.237 56.5149 115.237 56.5149V56.7171H113.726V55.464H113.787ZM112.9 44.2876L113.766 45.4194L113.787 56.7171H112.88V46.8139C112.88 46.1267 112.846 45.5339 112.779 45.0354C112.726 44.5369 112.699 44.2876 112.699 44.2876H112.9ZM124.262 44.5907V54.4131C124.262 54.8442 124.276 55.2619 124.303 55.6661C124.329 56.0568 124.356 56.3802 124.383 56.6362C124.424 56.8787 124.444 57 124.444 57H124.262L123.376 55.9288V44.5907H124.262ZM124.202 45.8438V44.5907H125.713V44.7929C125.713 44.7929 125.652 44.7929 125.532 44.7929C125.424 44.7929 125.37 44.7929 125.37 44.7929C125.075 44.7929 124.813 44.8939 124.585 45.096C124.37 45.2981 124.262 45.5474 124.262 45.8438H124.202ZM123.376 45.8438C123.363 45.5474 123.248 45.2981 123.033 45.096C122.819 44.8939 122.557 44.7929 122.248 44.7929C122.248 44.7929 122.187 44.7929 122.066 44.7929C121.959 44.7929 121.905 44.7929 121.905 44.7929V44.5907H123.416V45.8438H123.376Z" fill="#0A0A0A"/>
<path d="M145.986 44.5907V56.7171H144.696V44.5907H145.986ZM151.405 56.0905L151.364 56.7171H145.945V56.0905H151.405ZM150.458 50.3507V50.9571H145.945V50.3507H150.458ZM151.385 44.5907V45.2173H145.945V44.5907H151.385ZM152.533 53.827L151.425 56.7171H148.363L149.048 56.0905C149.719 56.0905 150.256 55.9962 150.659 55.8076C151.076 55.6055 151.411 55.336 151.667 54.9992C151.922 54.6488 152.143 54.2581 152.331 53.827H152.533ZM150.458 50.9166V52.0686H150.236V51.8059C150.236 51.5768 150.169 51.3815 150.035 51.2198C149.901 51.0446 149.692 50.9571 149.41 50.9571V50.9166H150.458ZM150.458 49.2392V50.3912H149.41V50.3507C149.692 50.3507 149.901 50.2699 150.035 50.1082C150.169 49.9331 150.236 49.731 150.236 49.5019V49.2392H150.458ZM151.385 45.1566V46.5512H151.163V46.248C151.163 45.9651 151.069 45.7225 150.881 45.5204C150.706 45.3183 150.465 45.2173 150.156 45.2173V45.1566H151.385ZM151.385 44.2674V44.7929L149.088 44.5907C149.504 44.5907 149.948 44.5571 150.418 44.4897C150.888 44.4089 151.21 44.3348 151.385 44.2674ZM144.736 55.4236L144.998 56.7171H143.246V56.5149C143.246 56.5149 143.293 56.5149 143.387 56.5149C143.481 56.5149 143.528 56.5149 143.528 56.5149C143.864 56.5149 144.139 56.4072 144.354 56.1916C144.569 55.976 144.683 55.72 144.696 55.4236H144.736ZM144.736 45.864H144.696C144.683 45.5541 144.569 45.2981 144.354 45.096C144.139 44.8939 143.864 44.7929 143.528 44.7929C143.528 44.7929 143.481 44.7929 143.387 44.7929C143.293 44.7929 143.246 44.7929 143.246 44.7929V44.5907H144.998L144.736 45.864Z" fill="#0A0A0A"/>
</svg>
